<?xml version="1.0" standalone="no"?>
<!DOCTYPE svg PUBLIC "-//W3C//DTD SVG 20010904//EN"
 "http://www.w3.org/TR/2001/REC-SVG-20010904/DTD/svg10.dtd">
<svg version="1.0" xmlns="http://www.w3.org/2000/svg"
 width="16.000000pt" height="16.000000pt" viewBox="0 0 16.000000 16.000000"
 preserveAspectRatio="xMidYMid meet">

<g transform="translate(0.000000,16.000000) scale(0.100000,-0.100000)"
fill="#000000" stroke="none">
<path d="M4 147 c-3 -8 -4 -43 -2 -78 l3 -64 75 0 75 0 0 75 0 75 -73 3 c-55
2 -74 -1 -78 -11z m146 -12 c0 -9 -6 -12 -15 -9 -10 4 -15 0 -15 -15 0 -12 6
-21 15 -21 8 0 15 -4 15 -10 0 -5 -6 -10 -14 -10 -9 0 -12 -8 -8 -27 l6 -28 7
25 7 25 1 -27 1 -28 -72 1 c-40 0 -67 3 -60 6 6 2 12 17 11 31 l-1 27 -8 -25
c-8 -24 -8 -23 -9 8 -1 21 4 32 13 32 9 0 12 7 9 20 -3 11 -9 20 -14 20 -5 0
-9 5 -9 10 0 6 30 10 70 10 55 0 70 -3 70 -15z"/>
<path d="M47 111 c7 -26 12 -26 29 -3 13 16 13 16 14 0 0 -25 16 -23 16 2 0
13 -7 20 -18 20 -10 0 -18 -5 -18 -11 0 -8 -4 -8 -14 0 -12 10 -13 8 -9 -8z"/>
<path d="M41 53 c-1 -29 17 -39 33 -17 10 13 15 14 21 4 6 -9 4 -11 -5 -5 -9
5 -11 4 -6 -3 12 -20 26 -13 24 12 -3 32 -48 34 -49 2 -1 -19 -2 -18 -9 4 -7
23 -8 23 -9 3z"/>
</g>
</svg>
